<svg width="144" height="135" viewBox="0 0 144 135" fill="none" xmlns="http://www.w3.org/2000/svg">
<rect width="94.5721" height="115.315" rx="14" transform="matrix(0.997905 0.0646992 -0.375393 0.926866 48.6631 12)" fill="url(#paint0_linear_228_83)"/>
<rect width="86.9456" height="113.183" rx="14" transform="matrix(0.997905 0.0646992 -0.375393 0.926866 52.6631 9)" fill="white"/>
<rect width="94.5721" height="115.315" rx="14" transform="matrix(0.997905 0.0646992 -0.375393 0.926866 43.2881 0)" fill="url(#paint1_linear_228_83)"/>
<rect width="56.3367" height="7.16325" rx="3.58163" transform="matrix(0.997905 0.0646992 -0.375393 0.926866 40.6631 50)" fill="white"/>
<rect width="56.3367" height="7.16325" rx="3.58163" transform="matrix(0.997905 0.0646992 -0.375393 0.926866 35.0635 64)" fill="white"/>
<path d="M57.374 118.557C58.174 104.157 61.374 101.557 62.874 102.057L77.874 103.557C73.874 107.557 73.874 114.057 73.874 118.057C73.874 121.257 71.5407 130.057 70.374 134.057L64.374 126.057L54.374 131.557C55.574 129.557 56.874 122.057 57.374 118.557Z" fill="url(#paint2_linear_228_83)"/>
<defs>
<linearGradient id="paint0_linear_228_83" x1="49.8198" y1="2.52012e-07" x2="51.3422" y2="115.228" gradientUnits="userSpaceOnUse">
<stop stop-color="#77EADE"/>
<stop offset="1" stop-color="#7452F5"/>
</linearGradient>
<linearGradient id="paint1_linear_228_83" x1="47.2861" y1="0" x2="47.2861" y2="115.315" gradientUnits="userSpaceOnUse">
<stop stop-color="#7452F5"/>
<stop offset="1" stop-color="#77EADE"/>
</linearGradient>
<linearGradient id="paint2_linear_228_83" x1="66.124" y1="102" x2="66.124" y2="134.057" gradientUnits="userSpaceOnUse">
<stop stop-color="#7455F5"/>
<stop offset="1" stop-color="#77EADE"/>
</linearGradient>
</defs>
</svg>
