<svg width="37" height="28" viewBox="0 0 37 28" fill="none" xmlns="http://www.w3.org/2000/svg">
<path d="M6.01929 26.4996C9.61929 23.6996 9.51929 18.6663 9.01929 16.4996C2.61934 16.4996 0.68598 12.1663 0.519292 9.9996C0.119292 1.5996 6.01929 0.499599 9.01929 0.999599C12.186 1.66627 17.8193 5.5996 15.0193 15.9996C12.2193 26.3996 7.85263 27.3329 6.01929 26.4996Z" fill="#7452F5" stroke="#C9C4F3"/>
<path d="M26.0386 26.1012C29.6386 23.3012 29.5386 18.2678 29.0386 16.1012C22.6386 16.1012 20.7053 11.7678 20.5386 9.60116C20.1386 1.20116 26.0386 0.101162 29.0386 0.601162C32.2052 1.26783 37.8386 5.20116 35.0386 15.6012C32.2386 26.0012 27.8719 26.9345 26.0386 26.1012Z" fill="#7452F5" stroke="#C9C4F3"/>
</svg>
