<svg width="130" height="45" viewBox="0 0 130 45" fill="none" xmlns="http://www.w3.org/2000/svg">
<path d="M67.8496 29.168V13.4058H73.3263C76.354 13.4058 79.2037 14.3854 79.2037 17.9252C79.2037 20.196 77.8902 21.8657 75.5526 22.1997L79.738 29.168H76.354L72.7029 22.4891H70.6547V29.168H67.8496ZM70.6547 20.0847H72.8365C74.4172 20.0847 76.265 19.9511 76.265 17.9029C76.265 16.0328 74.5285 15.8102 73.0814 15.8102H70.6547V20.0847ZM88.3066 29.168V27.6986H88.2398C87.4829 28.9008 86.2362 29.4351 84.8113 29.4351C82.8299 29.4351 80.9153 28.3442 80.9153 26.2293C80.9153 22.7562 84.9672 22.5113 87.6387 22.5113H88.3066V22.2219C88.3066 20.9084 87.2825 20.2183 85.8577 20.2183C84.7446 20.2183 83.7205 20.6635 83.008 21.3314L81.6055 19.9288C82.7854 18.7266 84.4551 18.2146 86.1471 18.2146C90.711 18.2146 90.711 21.5095 90.711 23.0234V29.168H88.3066ZM88.1508 24.9825V24.3814H87.5942C86.1249 24.3814 83.5869 24.4928 83.5869 26.0289C83.5869 27.0085 84.5887 27.4315 85.457 27.4315C87.2825 27.4315 88.1508 26.4742 88.1508 24.9825ZM102.045 18.4818H104.583V28.2107C104.583 32.0622 102.713 34.5111 98.55 34.5111C96.5686 34.5111 94.7653 34.0881 93.2514 32.7523L94.8544 30.5705C95.923 31.5501 97.0361 32.1067 98.5278 32.1067C101.11 32.1067 101.912 30.6373 101.912 28.5223V27.7431H101.867C101.088 28.7895 99.7077 29.3015 98.3719 29.3015C95.1661 29.3015 93.0511 26.8526 93.0511 23.8249C93.0511 20.6635 95.0325 18.2146 98.3274 18.2146C99.819 18.2146 101.222 18.7934 102.001 20.0847H102.045V18.4818ZM98.884 20.619C97.0139 20.619 95.7226 21.9102 95.7226 23.8026C95.7226 25.4946 97.0584 26.8971 98.8617 26.8971C100.843 26.8971 102.045 25.5391 102.045 23.7581C102.045 21.9102 100.821 20.619 98.884 20.619ZM106.095 29.168L112.952 13.4058H115.378L122.168 29.168H118.963L117.493 25.5614H110.658L109.234 29.168H106.095ZM111.616 23.157H116.514L114.087 16.7452L111.616 23.157ZM123.853 29.168V13.4058H126.658V29.168H123.853Z" fill="#7452F5"/>
<path d="M17.7305 0C21.4637 0.000117225 24.5248 2.86848 24.835 6.52148H24.8633V37.9062H24.835C24.5247 41.5591 21.4636 44.4276 17.7305 44.4277C13.7912 44.4277 10.5978 41.2342 10.5977 37.2949C10.5977 37.0651 10.6086 36.8376 10.6299 36.6133C7.15765 36.1328 4.48358 33.1552 4.4834 29.5508C4.4834 29.047 4.53643 28.5553 4.63574 28.0811C1.92814 27.0688 0 24.4592 0 21.3984C5.3269e-05 18.3825 1.87231 15.8049 4.51758 14.7617C4.49516 14.5315 4.4834 14.2977 4.4834 14.0615C4.48359 10.4672 7.14255 7.49507 10.6006 7.00195C10.6704 3.123 13.8348 0 17.7305 0Z" fill="#7452F5"/>
<path d="M34.0342 0C37.9298 0 41.0932 3.12301 41.1631 7.00195C44.6215 7.49473 47.2811 10.467 47.2812 14.0615C47.2812 14.2977 47.2685 14.5315 47.2461 14.7617C49.8917 15.8048 51.7646 18.3823 51.7646 21.3984C51.7646 24.4594 49.8359 27.069 47.1279 28.0811C47.2273 28.5553 47.2812 29.047 47.2812 29.5508C47.2811 33.1558 44.6059 36.1335 41.1328 36.6133C41.1541 36.8376 41.167 37.065 41.167 37.2949C41.1668 41.2342 37.9735 44.4277 34.0342 44.4277C30.3009 44.4277 27.24 41.5592 26.9297 37.9062H26.9014V6.52148H26.9297C27.2399 2.86843 30.3008 2.2957e-05 34.0342 0Z" fill="#7452F5"/>
<path d="M15.3291 8.96777C15.3302 10.4248 16.4878 11.6072 17.9336 11.6543C17.9336 11.6572 17.9327 11.6602 17.9326 11.6631C16.5167 11.7096 15.3799 12.8469 15.333 14.2627C15.3301 14.2627 15.3272 14.2636 15.3242 14.2637C15.2768 12.8181 14.0936 11.6601 12.6367 11.6592L12.6357 11.6582C14.1225 11.6577 15.327 10.4543 15.3281 8.96777H15.3291Z" fill="white"/>
<path d="M36.8428 8.96777C36.8417 10.4248 35.6841 11.6072 34.2383 11.6543C34.2383 11.6572 34.2392 11.6602 34.2393 11.6631C35.6551 11.7096 36.7919 12.8469 36.8389 14.2627C36.8418 14.2627 36.8447 14.2636 36.8477 14.2637C36.8951 12.8181 38.0783 11.6601 39.5352 11.6592L39.5361 11.6582C38.0494 11.6577 36.8449 10.4543 36.8438 8.96777H36.8428Z" fill="white"/>
<path d="M21.0352 14.2666C21.0363 15.7236 22.1938 16.9061 23.6396 16.9531C23.6396 16.9561 23.6387 16.959 23.6387 16.9619C22.2228 17.0085 21.086 18.1457 21.0391 19.5615C21.0361 19.5616 21.0332 19.5625 21.0303 19.5625C20.9829 18.1169 19.7996 16.959 18.3428 16.958L18.3418 16.957C19.8285 16.9566 21.0331 15.7532 21.0342 14.2666H21.0352Z" fill="white"/>
<path d="M31.1367 14.2666C31.1356 15.7236 29.978 16.9061 28.5322 16.9531C28.5323 16.9561 28.5332 16.959 28.5332 16.9619C29.9491 17.0085 31.0859 18.1457 31.1328 19.5615C31.1357 19.5616 31.1387 19.5625 31.1416 19.5625C31.189 18.1169 32.3722 16.959 33.8291 16.958L33.8301 16.957C32.3434 16.9566 31.1388 15.7532 31.1377 14.2666H31.1367Z" fill="white"/>
<path d="M24.8634 36.276C21.9649 31.8815 14.1452 31.5966 10.5977 32.0035V30.376C18.206 29.3994 23.2783 32.0035 24.8634 33.4277V36.276Z" fill="white" stroke="white" stroke-width="0.407592"/>
<path d="M26.8095 36.276C29.7079 31.8815 37.5276 31.5966 41.0752 32.0035V30.376C33.4668 29.3994 28.3946 32.0035 26.8095 33.4277V36.276Z" fill="white" stroke="white" stroke-width="0.407592"/>
<path d="M25.0667 32.2102C22.4581 27.8082 15.4203 27.5229 12.2275 27.9305V26.3001C19.0751 25.3219 23.6401 27.9305 25.0667 29.3571V32.2102Z" fill="white" stroke="white" stroke-width="0.407592"/>
<path d="M26.6062 32.2102C29.2148 27.8082 36.2525 27.5229 39.4453 27.9305V26.3001C32.5978 25.3219 28.0327 27.9305 26.6062 29.3571V32.2102Z" fill="white" stroke="white" stroke-width="0.407592"/>
<path d="M26.2329 28.91C24.0509 24.2817 17.0714 23.3341 13.8544 23.4389L14.0081 21.8158C20.9174 21.4875 25.2162 24.5148 26.5019 26.0695L26.2329 28.91Z" fill="white" stroke="white" stroke-width="0.407592"/>
<path d="M25.4399 28.91C27.6219 24.2817 34.6014 23.3341 37.8184 23.4389L37.6647 21.8158C30.7555 21.4875 26.4567 24.5148 25.171 26.0695L25.4399 28.91Z" fill="white" stroke="white" stroke-width="0.407592"/>
</svg>
