<svg width="239" height="219" viewBox="0 0 239 219" fill="none" xmlns="http://www.w3.org/2000/svg">
<path d="M19.0635 156.746L19.9893 157.047L20.5615 157.834L19.1357 158.87L18.7539 158.746L18.5186 158.422L19.0635 156.746ZM68.9355 156.746L69.4805 158.422L69.2451 158.746L68.8633 158.87L67.4375 157.834L68.0098 157.047L68.9355 156.746ZM66.4658 149.146L67.084 151.045V151.046L66.1328 151.354L66.751 153.255L67.7012 152.946V152.945L68.3184 154.847H68.3193L67.3682 155.155L67.96 156.979L66.4092 155.852L65.8213 156.66L64.2041 155.486L64.793 154.678L63.1768 153.503L62.5889 154.312H62.5879L60.9717 153.138L61.5605 152.328L59.9434 151.154L59.3545 151.963L57.7393 150.788L58.3271 149.979L56.7109 148.806L56.1221 149.614L54.5068 148.439L55.0947 147.631L53.4785 146.457L52.8906 147.266H52.8896L51.2725 146.091L51.8613 145.282L50.2451 144.107L49.6572 144.916L48.04 143.742H48.041L48.6289 142.934L47.0127 141.759L46.4238 142.568L44.8076 141.394H44.8086L45.3955 140.585L44.5879 139.997L44 139.57L43.4121 139.997L42.6045 140.585L43.1914 141.394L41.5752 142.568L40.9873 141.759L39.3711 142.934L39.959 143.742L38.3418 144.916L37.7549 144.107L36.1387 145.282L36.7266 146.091L35.1094 147.266L34.5215 146.457L32.9053 147.631L33.4922 148.439L31.877 149.614L31.2891 148.806L29.6729 149.979L30.2598 150.788L28.6445 151.963L28.0566 151.154L26.4395 152.328L27.0273 153.138L25.4111 154.312L24.8232 153.503L23.207 154.678L23.7949 155.486L22.1777 156.66L21.5908 155.852L20.0391 156.979L20.6318 155.155L19.6807 154.847L20.2979 152.945L20.2988 152.946L21.249 153.255L21.8672 151.354L20.916 151.046L20.915 151.045L21.5332 149.146L22.4844 149.455L23.1016 147.555L22.1504 147.245L22.7676 145.346L23.7188 145.654L24.3369 143.754L23.3857 143.445L23.3848 143.444L24.002 141.544L24.0029 141.545L24.9541 141.854L25.5713 139.954L24.6201 139.645L24.6191 139.644L25.2373 137.744L26.1885 138.054L26.8066 136.153L25.8555 135.844L25.8545 135.843L26.4717 133.943L26.4727 133.944L27.4238 134.253L28.041 132.353L27.0898 132.044L27.0889 132.043L27.7061 130.143L27.707 130.144L28.6582 130.452L28.9668 129.503L29.1914 128.812L28.6035 128.385L27.7959 127.797L27.207 128.606L25.5908 127.432H25.5918L26.1797 126.623L24.5625 125.448L23.9746 126.257L22.3574 125.083L22.9463 124.274L21.3301 123.1L20.7422 123.908L19.125 122.734L19.7139 121.926L18.0977 120.751L17.5098 121.56H17.5088L15.8926 120.385L16.4805 119.576L14.8643 118.402L14.2754 119.211L12.6602 118.036L13.248 117.228L11.6318 116.054L11.0439 116.862H11.043L9.42676 115.688L10.0156 114.879L8.39844 113.705L7.81055 114.513L6.19336 113.339H6.19434L6.78223 112.53L5.23145 111.403H7.14844V110.403H9.14648V111.403H11.1445V110.403H13.1426V111.403H15.1406V110.403H17.1387V111.403H19.1367V110.403H21.1348V111.403H23.1328V110.403H25.1309V111.403H27.1279V110.403H29.126V111.403H31.124V110.403H33.1221V111.403H34.8477L35.0723 110.712L35.3809 109.762L34.4297 109.453L35.0469 107.552L35.0479 107.553L35.999 107.862L36.6162 105.962L35.665 105.652L35.6641 105.651L36.2812 103.752L36.2822 103.753L37.2334 104.062L37.8506 102.161L36.8994 101.853L37.5166 99.9512L37.5176 99.9521L38.4678 100.261L39.0859 98.3613L38.1348 98.0518L38.1338 98.0508L38.752 96.1514L39.7031 96.4609L40.3203 94.5605L39.3691 94.252L39.3682 94.251L39.9863 92.3516L40.9375 92.6602L41.5557 90.7598L40.6045 90.4512L40.6035 90.4502L41.2207 88.5498L41.2217 88.5508L42.1729 88.8604L42.79 86.96L41.8389 86.6504L42.4561 84.751L43.4072 85.0596L44 83.2363L44.5928 85.0596L45.543 84.751L46.1602 86.6504H46.1611L45.21 86.96L45.8271 88.8604L46.7783 88.5508V88.5498L47.3955 90.4502V90.4512L46.4443 90.7598L47.0625 92.6602L48.0127 92.3516L48.6309 94.251V94.252L47.6797 94.5605L48.2969 96.4609L49.2471 96.1514L49.8652 98.0508V98.0518L48.9141 98.3613L49.5322 100.261L50.4824 99.9521V99.9512L51.0996 101.853H51.1006L50.1494 102.161L50.7666 104.062L51.7178 103.753V103.752L52.335 105.651V105.652L51.3838 105.962L52.001 107.862L52.9521 107.553V107.552L53.5693 109.453H53.5703L52.6191 109.762L52.9277 110.712L53.1523 111.403H54.8779V110.403H56.876V111.403H58.874V110.403H60.8721V111.403H62.8691V110.403H64.8672V111.403H66.8652V110.403H68.8633V111.403H70.8613V110.403H72.8594V111.403H74.8574V110.403H76.8555V111.403H78.8535V110.403H80.8516V111.403H82.7686L81.2178 112.53L81.8057 113.339L80.1885 114.513L79.6016 113.705L77.9844 114.879L78.5723 115.688L76.9561 116.862L76.3682 116.054L74.752 117.228L75.3389 118.036L73.7236 119.211L73.1357 118.402L71.5195 119.576L72.1064 120.385L70.4902 121.56L69.9023 120.751L68.2861 121.926L68.874 122.734L67.2568 123.908L66.6699 123.1L65.0537 124.274L65.6416 125.083L64.0244 126.257L63.4375 125.448L61.8203 126.623L62.4082 127.432L60.792 128.606L60.2041 127.797L59.3965 128.385L58.8086 128.812L59.0332 129.503L59.3418 130.452L60.293 130.144V130.143L60.9102 132.043V132.044L59.959 132.353L60.5762 134.253L61.5273 133.944V133.943L62.1445 135.843V135.844L61.1934 136.153L61.8115 138.054L62.7617 137.744L63.3799 139.644V139.645L62.4287 139.954L63.0459 141.854L63.9971 141.545V141.544L64.6143 143.444V143.445L63.6631 143.754L64.2812 145.654L65.2314 145.346L65.8486 147.245H65.8496L64.8984 147.555L65.5156 149.455L66.4658 149.146ZM5.15039 110.403V111.377L4.57715 112.165L3.15234 111.129V110.728L3.38867 110.403H5.15039ZM84.6113 110.403L84.8477 110.728V111.129L83.4219 112.165L82.8496 111.377V110.403H84.6113ZM44.3809 81.1738L44.9258 82.8496V82.8506L44 83.1504L43.0742 82.8506L43.0732 82.8496L43.6182 81.1738L44 81.0498L44.3809 81.1738Z" stroke="#7452F5" stroke-width="2" stroke-dasharray="2 2"/>
<path d="M181.004 207.408L181.663 209.438H181.664L180.713 209.746L181.373 211.776L182.323 211.467V211.466L182.904 213.257L182.652 213.604L182.245 213.736L180.722 212.63L181.311 211.821L179.584 210.566L178.996 211.375L177.269 210.121L177.857 209.312L176.131 208.058L175.543 208.866L173.815 207.612L174.404 206.804L172.678 205.549L172.09 206.357H172.089L170.362 205.104L170.951 204.294L170.088 203.667L169.5 203.24L168.912 203.667L168.049 204.294L168.637 205.104L166.91 206.357L166.322 205.549L164.596 206.804L165.184 207.612L163.456 208.866L162.869 208.058L161.143 209.312L161.73 210.121L160.003 211.375L159.416 210.566L157.689 211.821L158.277 212.63L156.754 213.736L156.347 213.604L156.095 213.257L156.676 211.466L156.677 211.467L157.627 211.776L158.287 209.746L157.336 209.438L157.995 207.408L158.946 207.717L159.605 205.687L158.655 205.378L158.654 205.377L159.313 203.348L159.314 203.349L160.266 203.657L160.925 201.628L159.974 201.318L160.633 199.288L160.634 199.289L161.584 199.598L161.914 198.583L162.139 197.892L161.551 197.465L160.688 196.838L160.1 197.646L158.373 196.392L158.961 195.583L157.234 194.329L156.646 195.137L154.919 193.883L155.508 193.074L153.781 191.819L153.193 192.628L151.466 191.374L152.055 190.565L150.328 189.311L149.74 190.119L148.217 189.013V188.585L148.47 188.238H150.352V189.238H152.485V188.238H154.62V189.238H156.754V188.238H158.889V189.238H161.022V188.238H163.157V189.238H164.95L165.175 188.547L165.505 187.532L164.554 187.224L164.553 187.223L165.213 185.193L166.164 185.503L166.824 183.473L165.873 183.164L165.872 183.163L166.531 181.133L166.532 181.134L167.483 181.443L168.143 179.413L167.191 179.104L167.851 177.073L167.852 177.074L168.803 177.384L169.462 175.354L168.511 175.045L168.51 175.044L169.092 173.254L169.5 173.122L169.907 173.254L170.489 175.044V175.045L169.538 175.354L170.197 177.384L171.148 177.074V177.073L171.808 179.104H171.809L170.857 179.413L171.517 181.443L172.468 181.134V181.133L173.127 183.163V183.164L172.176 183.473L172.836 185.503L173.786 185.193L174.446 187.223V187.224L173.495 187.532L173.825 188.547L174.05 189.238H175.843V188.238H177.978V189.238H180.111V188.238H182.246V189.238H184.38V188.238H186.515V189.238H188.648V188.238H190.53L190.783 188.585V189.013L189.259 190.119L188.672 189.311L186.945 190.565L187.533 191.374L185.806 192.628L185.219 191.819L183.492 193.074L184.08 193.883L182.353 195.137L181.766 194.329L180.039 195.583L180.626 196.392L178.899 197.646L178.312 196.838L177.449 197.465L176.861 197.892L177.086 198.583L177.416 199.598L178.366 199.289V199.288L179.025 201.318H179.026L178.075 201.628L178.734 203.657L179.686 203.349V203.348L180.345 205.377V205.378L179.395 205.687L180.054 207.717L181.004 207.408Z" stroke="#7452F5" stroke-width="2" stroke-dasharray="2 2"/>
<path d="M213.264 96.2217L213.903 98.1904H213.904L212.953 98.5L213.593 100.469L214.544 100.16V100.159L215.107 101.896L214.864 102.232L214.468 102.361L212.99 101.288H212.991L213.579 100.479L211.903 99.2627L211.315 100.07L209.641 98.8535L210.229 98.0449L208.553 96.8281L207.966 97.6367H207.965L206.289 96.4199L206.878 95.6113L205.203 94.3936L204.614 95.2031L202.938 93.9854H202.939L203.527 93.1768L201.853 91.96L201.265 92.7686H201.264L199.589 91.5518H199.59L200.178 90.7422L198.502 89.5254L197.914 90.334H197.913L196.238 89.1172H196.239L196.827 88.3086L195.151 87.0908L194.563 87.8994L192.889 86.6826L193.477 85.874L191.802 84.6572L191.214 85.4658H191.213L189.537 84.249L190.126 83.4404L188.451 82.2227L187.862 83.0322L186.187 81.8145H186.188L186.775 81.0059L185.101 79.7891L184.513 80.5977H184.512L182.837 79.3809H182.838L183.426 78.5713L182.588 77.9629L182 77.5361L181.412 77.9629L180.574 78.5713L181.162 79.3809L179.487 80.5977L178.899 79.7891L177.225 81.0059L177.812 81.8145L176.137 83.0322L175.549 82.2227L173.874 83.4404L174.462 84.249L172.786 85.4658L172.198 84.6572L170.523 85.874L171.11 86.6826L169.436 87.8994L168.849 87.0908L167.173 88.3086L167.761 89.1172L166.086 90.334L165.498 89.5254L163.822 90.7422L164.41 91.5518L162.735 92.7686L162.147 91.96L160.473 93.1768L161.061 93.9854L159.385 95.2031L158.797 94.3936L157.122 95.6113L157.71 96.4199L156.034 97.6367L155.447 96.8281L153.771 98.0449L154.358 98.8535L152.684 100.07L152.097 99.2627L150.421 100.479L151.009 101.288L149.531 102.361L149.135 102.232L148.892 101.896L149.455 100.159L149.456 100.16L150.407 100.469L151.047 98.5L150.096 98.1904L150.735 96.2217L151.687 96.5303L152.327 94.5615L151.376 94.252L151.375 94.251L152.015 92.2822L152.016 92.2832L152.967 92.5918L153.606 90.6221L152.655 90.3135L153.295 88.3438L154.246 88.6533L154.886 86.6836L153.936 86.375L153.935 86.374L154.574 84.4043L154.575 84.4053L155.526 84.7148L156.166 82.7451L155.215 82.4365L155.854 80.4668L156.806 80.7764L157.445 78.8066L156.494 78.498L157.134 76.5273L157.135 76.5283L158.086 76.8379L158.726 74.8682L157.774 74.5596L157.773 74.5586L158.414 72.5898L159.365 72.8984L160.005 70.9297L159.054 70.6201L159.693 68.6504L159.694 68.6514L160.645 68.96L161.285 66.9912L160.334 66.6816L160.974 64.7129L161.925 65.0215L162.244 64.0371L162.469 63.3457L161.881 62.9189L161.044 62.3105L160.456 63.1182L158.78 61.9014L159.368 61.0938L157.693 59.876L157.105 60.6846L155.431 59.4668L156.019 58.6592L154.343 57.4424L153.755 58.25L152.08 57.0332L152.668 56.2246L150.992 55.0078L150.404 55.8164L148.729 54.5986L149.317 53.791L147.643 52.5732L147.055 53.3818L145.379 52.165L145.967 51.3564L144.292 50.1396L143.704 50.9473L142.029 49.7305L142.616 48.9219L140.941 47.7051L140.354 48.5137L138.679 47.2959L139.267 46.4883L137.591 45.2715L137.003 46.0791L135.328 44.8623L135.916 44.0537L134.24 42.8369L133.652 43.6455L131.978 42.4277L132.565 41.6201L130.891 40.4023L130.303 41.2109L128.825 40.1377V39.7207L129.069 39.3857H130.896V40.3857H132.967V39.3857H135.037V40.3857H137.107V39.3857H139.179V40.3857H141.249V39.3857H143.319V40.3857H145.391V39.3857H147.461V40.3857H149.531V39.3857H151.603V40.3857H153.673V39.3857H155.743V40.3857H157.814V39.3857H159.885V40.3857H161.955V39.3857H164.026V40.3857H166.097V39.3857H168.167V40.3857H169.93L170.153 39.6953L170.474 38.71L169.522 38.4014L170.162 36.4316L171.113 36.7412L171.754 34.7715L170.803 34.4629L170.802 34.4619L171.442 32.4932L172.394 32.8027L173.033 30.833L172.082 30.5244L172.722 28.5547L173.673 28.8643L174.312 26.8945L173.362 26.5859L173.361 26.585L174.001 24.6152L174.002 24.6162L174.953 24.9248L175.593 22.9561L174.642 22.6465L175.281 20.6777L176.232 20.9863L176.872 19.0176L175.921 18.708L176.561 16.7383L176.562 16.7393L177.512 17.0479L178.152 15.0791L177.201 14.7695L177.841 12.8008L178.792 13.1094L179.432 11.1406L178.48 10.8311L179.12 8.86133L179.121 8.8623L180.071 9.1709L180.712 7.20117L179.761 6.89258L179.76 6.8916L180.4 4.92285L181.352 5.23242L181.991 3.2627L181.04 2.9541L181.604 1.2168L182 1.08789L182.396 1.2168L182.959 2.9541H182.96L182.009 3.2627L182.648 5.23242L183.599 4.92285L184.239 6.8916V6.89258L183.288 7.20117L183.929 9.1709L184.879 8.8623V8.86133L185.519 10.8311H185.52L184.568 11.1406L185.208 13.1094L186.158 12.8008L186.798 14.7695H186.799L185.848 15.0791L186.488 17.0479L187.438 16.7393V16.7383L188.078 18.708L187.128 19.0176L187.768 20.9863L188.718 20.6777L189.357 22.6465H189.358L188.407 22.9561L189.047 24.9248L189.998 24.6162V24.6152L190.638 26.585V26.5859L189.688 26.8945L190.327 28.8643L191.277 28.5547L191.917 30.5244H191.918L190.967 30.833L191.606 32.8027L192.557 32.4932L193.197 34.4619V34.4629L192.246 34.7715L192.887 36.7412L193.837 36.4316L194.477 38.4014L193.526 38.71L193.847 39.6953L194.07 40.3857H195.833V39.3857H197.903V40.3857H199.974V39.3857H202.045V40.3857H204.115V39.3857H206.186V40.3857H208.257V39.3857H210.327V40.3857H212.397V39.3857H214.469V40.3857H216.539V39.3857H218.609V40.3857H220.681V39.3857H222.751V40.3857H224.821V39.3857H226.893V40.3857H228.963V39.3857H231.033V40.3857H233.104V39.3857H234.931L235.175 39.7207V40.1377L233.696 41.2109L233.109 40.4023L231.435 41.6201L232.021 42.4277L230.347 43.6455L229.76 42.8369L228.084 44.0537L228.671 44.8623L226.996 46.0791L226.409 45.2715L224.733 46.4883L225.32 47.2959L223.646 48.5137L223.059 47.7051L221.384 48.9219L221.97 49.7305L220.295 50.9473L219.708 50.1396L218.033 51.3564L218.62 52.165L216.944 53.3818L216.357 52.5732L214.683 53.791L215.27 54.5986L213.595 55.8164L213.008 55.0078L211.332 56.2246L211.919 57.0332L210.244 58.25L209.657 57.4424L207.981 58.6592L208.568 59.4668L206.894 60.6846L206.307 59.876L204.632 61.0938L205.219 61.9014L203.543 63.1182L202.956 62.3105L202.119 62.9189L201.531 63.3457L201.756 64.0371L202.075 65.0215L203.025 64.7129L203.665 66.6816H203.666L202.715 66.9912L203.355 68.96L204.306 68.6514V68.6504L204.945 70.6201L203.995 70.9297L204.635 72.8984L205.585 72.5898L206.226 74.5586V74.5596L205.274 74.8682L205.914 76.8379L206.865 76.5283V76.5273L207.505 78.498H207.506L206.555 78.8066L207.194 80.7764L208.145 80.4668L208.784 82.4365H208.785L207.834 82.7451L208.474 84.7148L209.425 84.4053V84.4043L210.064 86.374V86.375L209.114 86.6836L209.754 88.6533L210.704 88.3438L211.344 90.3135H211.345L210.394 90.6221L211.033 92.5918L211.984 92.2832V92.2822L212.624 94.251V94.252L211.673 94.5615L212.313 96.5303L213.264 96.2217Z" stroke="#7452F5" stroke-width="2" stroke-dasharray="2 2"/>
</svg>
