<svg width="382" height="249" viewBox="0 0 382 249" fill="none" xmlns="http://www.w3.org/2000/svg">
<path d="M24.7959 166.952L25.6494 167.225L26.2324 168.014L24.873 169.019L24.4883 168.896L24.2695 168.6L24.7959 166.952ZM91.2031 166.952L91.7295 168.6L91.5107 168.896L91.126 169.019L89.7666 168.014H89.7676L90.3496 167.225L91.2031 166.952ZM87.6514 155.834L88.2432 157.687H88.2441L87.292 157.991L87.8838 159.845L88.8359 159.54V159.539L89.4277 161.393V161.394L88.4756 161.697L89.0674 163.551L90.0195 163.246V163.245L90.6113 165.099V165.1L89.6592 165.403L90.1973 167.088L88.8115 166.064L88.2168 166.869L86.667 165.724L87.2627 164.919L85.7129 163.774L85.1172 164.578L83.5674 163.433H83.5684L84.1631 162.629L82.6133 161.483L82.0186 162.288L80.4688 161.143L81.0635 160.338L79.5146 159.193L78.9199 159.997H78.9189L77.3691 158.852H77.3701L77.9648 158.048L76.415 156.902L75.8203 157.706L74.2705 156.561L74.8652 155.757L73.3154 154.612L72.7217 155.416H72.7207L71.1709 154.271H71.1719L71.7656 153.467L70.2168 152.321L69.6221 153.125L68.0723 151.979L68.667 151.176L67.1172 150.031L66.5225 150.834L64.9727 149.689H64.9736L65.5674 148.886L64.0176 147.74L63.4238 148.544L61.874 147.398L62.4688 146.595L60.9189 145.449L60.3242 146.253L58.7734 145.108L59.3691 144.305L58.5947 143.731L58 143.293L57.4053 143.731L56.6309 144.305L57.2256 145.108L55.6748 146.253L55.0811 145.449L53.5312 146.595L54.125 147.398L52.5752 148.544L51.9824 147.74L50.4326 148.886L51.0264 149.689L49.4766 150.834L48.8828 150.031L47.333 151.176L47.9268 151.979L46.377 153.125L45.7832 152.321L44.2344 153.467L44.8281 154.271L43.2783 155.416L42.6846 154.612L41.1348 155.757L41.7285 156.561L40.1787 157.706L39.585 156.902L38.0352 158.048L38.6299 158.852L37.0801 159.997L36.4854 159.193L34.9365 160.338L35.5303 161.143L33.9805 162.288L33.3867 161.483L31.8369 162.629L32.4316 163.433L30.8818 164.578L30.2871 163.774L28.7373 164.919L29.332 165.724L27.7822 166.869L27.1885 166.064L25.8018 167.088L26.3408 165.403L25.3887 165.1L25.3877 165.099L25.9795 163.245L25.9805 163.246L26.9326 163.551L27.5244 161.697L26.5723 161.394L26.5713 161.393L27.1631 159.539L27.1641 159.54L28.1162 159.845L28.708 157.991L27.7559 157.687L28.3477 155.834L29.3008 156.138L29.8926 154.285L28.9395 153.98L29.5312 152.128L30.4844 152.432L31.0762 150.579L30.123 150.274L30.7148 148.422L31.668 148.726L32.2598 146.873L31.3076 146.568L31.3066 146.567L31.8994 144.715L32.8516 145.02L33.4434 143.166L32.4912 142.862L32.4902 142.861L33.083 141.009L34.0352 141.313L34.627 139.46L33.6748 139.156L34.2666 137.303L35.2197 137.607L35.8115 135.754L34.8584 135.45L35.4502 133.597L36.4033 133.901L36.9951 132.048L36.042 131.743L36.6338 129.89L36.6348 129.891L37.5869 130.194L37.8828 129.269L38.1006 128.586L37.5244 128.16L36.75 127.587L36.1553 128.391L34.6055 127.245L35.2002 126.442L33.6504 125.297L33.0557 126.101L31.5059 124.955L32.1006 124.151L30.5518 123.006L29.957 123.81L28.4072 122.664L29.002 121.86L27.4521 120.716L26.8574 121.519L25.3076 120.374L25.9023 119.57L24.3525 118.425L23.7588 119.229L22.209 118.083L22.8037 117.279L21.2539 116.135L20.6592 116.938L19.1094 115.792L19.7041 114.989L18.1543 113.844L17.5605 114.647L16.0107 113.502L16.6045 112.698L15.0557 111.554L14.4609 112.356L12.9111 111.211L13.5059 110.408L11.9561 109.263L11.3613 110.066L9.81152 108.921L10.4062 108.117L8.85645 106.973L8.2627 107.775L6.71289 106.63L7.30664 105.827L5.87402 104.768H7.62695V103.768H9.54297V104.768H11.458V103.768H13.374V104.768H15.2891V103.768H17.2041V104.768H19.1201V103.768H21.0352V104.768H22.9512V103.768H24.8662V104.768H26.7812V103.768H28.6973V104.768H30.6123V103.768H32.5283V104.768H34.4434V103.768H36.3584V104.768H38.2744V103.768H40.1895V104.768H42.1055V103.768H44.0205V104.768H45.709L45.9307 104.072L46.2266 103.146L45.2744 102.842L45.2734 102.841L45.8662 100.988L46.8184 101.293L47.4102 99.4395L46.458 99.1357L46.457 99.1348L47.0498 97.2822L48.002 97.5869L48.5947 95.7334L47.6416 95.4287L48.2334 93.5762L49.1865 93.8799L49.7783 92.0273L48.8252 91.7227L49.417 89.8701L50.3701 90.1738L50.9619 88.3213L50.0098 88.0166L50.0088 88.0156L50.6006 86.1631L50.6016 86.1641L51.5537 86.4678L52.1455 84.6152L51.1934 84.3105L51.1924 84.3096L51.7852 82.457L52.7373 82.7617L53.3291 80.9082L52.377 80.6045L52.9688 78.751L53.9219 79.0557L54.5137 77.2021L53.5605 76.8984L54.1523 75.0449L55.1055 75.3496L55.6973 73.4961L54.7441 73.1924L55.3359 71.3379L55.3369 71.3389L56.2891 71.6436L56.8809 69.79L55.9287 69.4854L55.9277 69.4844L56.5195 67.6318L56.5205 67.6328L57.4727 67.9365L58 66.2852L58.5273 67.9365L59.4795 67.6328V67.6318L60.0713 69.4844V69.4854L59.1191 69.79L59.7109 71.6436L60.6631 71.3389V71.3379L61.2549 73.1924H61.2559L60.3027 73.4961L60.8945 75.3496L61.8467 75.0449L62.4385 76.8984H62.4395L61.4863 77.2021L62.0781 79.0557L63.0303 78.751L63.6221 80.6045H63.623L62.6709 80.9082L63.2627 82.7617L64.2139 82.457L64.8066 84.3096V84.3105L63.8545 84.6152L64.4463 86.4678L65.3984 86.1641V86.1631L65.9902 88.0156V88.0166L65.0381 88.3213L65.6299 90.1738L66.582 89.8701L67.1738 91.7227L66.2217 92.0273L66.8135 93.8799L67.7656 93.5762L68.3574 95.4287H68.3584L67.4053 95.7334L67.998 97.5869L68.9492 97.2822L69.542 99.1348V99.1357L68.5898 99.4395L69.1816 101.293L70.1328 100.988L70.7256 102.841V102.842L69.7734 103.146L70.0693 104.072L70.291 104.768H71.9795V103.768H73.8945V104.768H75.8105V103.768H77.7256V104.768H79.6416V103.768H81.5566V104.768H83.4717V103.768H85.3877V104.768H87.3027V103.768H89.2188V104.768H91.1338V103.768H93.0488V104.768H94.9648V103.768H96.8799V104.768H98.7959V103.768H100.711V104.768H102.626V103.768H104.542V104.768H106.457V103.768H108.373V104.768H110.126L108.693 105.827L109.286 106.63L107.736 107.775L107.144 106.973L105.594 108.117L106.188 108.921L104.638 110.066L104.044 109.263L102.494 110.408L103.088 111.211L101.538 112.356L100.944 111.554L99.3955 112.698L99.9883 113.502L98.4385 114.647L97.8457 113.844L96.2959 114.989L96.8896 115.792L95.3398 116.938L94.7461 116.135L93.1963 117.279L93.79 118.083L92.2402 119.229L91.6475 118.425L90.0977 119.57L90.6914 120.374L89.1416 121.519L88.5479 120.716L86.998 121.86L87.5918 122.664L86.042 123.81L85.4482 123.006L83.8994 124.151L84.4932 124.955L82.9434 126.101L82.3496 125.297L80.7998 126.442L81.3936 127.245L79.8438 128.391L79.25 127.587L78.4756 128.16L77.8994 128.586L78.1172 129.269L78.4131 130.195L79.3652 129.891V129.89L79.957 131.743L79.0049 132.048L79.5967 133.901L80.5488 133.597L81.1406 135.45H81.1416L80.1885 135.754L80.7803 137.607L81.7324 137.303L82.3242 139.156H82.3252L81.373 139.46L81.9648 141.313L82.916 141.009L83.5088 142.861V142.862L82.5566 143.166L83.1484 145.02L84.0996 144.715L84.6924 146.567V146.568L83.7402 146.873L84.332 148.726L85.2842 148.422L85.876 150.274L84.9238 150.579L85.5156 152.432L86.4678 152.128L87.0596 153.98H87.0605L86.1074 154.285L86.6992 156.138L87.6514 155.834ZM5.71191 103.768V104.743L5.16309 105.485L3.79688 104.476V104.092L4.03711 103.768H5.71191ZM111.963 103.768L112.203 104.092V104.476L110.836 105.485L110.288 104.743V103.768H111.963ZM58.3623 64.1367L58.8877 65.7783V65.7793L58 66.0625L57.1123 65.7793L57.1113 65.7783L57.6367 64.1367L58 64.0205L58.3623 64.1367Z" stroke="#7452F5" stroke-width="2" stroke-dasharray="2 2"/>
<path d="M205.429 240.264L206.22 240.512L206.812 241.302L205.508 242.281L205.121 242.16L204.917 241.887L205.428 240.263L205.429 240.264ZM240.082 241.887L239.878 242.16L239.491 242.281L238.187 241.302L238.779 240.512L239.571 240.264V240.263L240.082 241.887ZM238.43 236.636L239.001 238.448V238.449L238.047 238.75L238.539 240.316L237.293 239.382L236.692 240.181L235.198 239.06L235.799 238.261L234.305 237.14L233.705 237.939H233.704L232.21 236.818H232.211L232.811 236.019L231.317 234.897L230.717 235.697H230.716L229.222 234.576H229.223L229.823 233.776L228.329 232.655L227.729 233.455H227.728L226.234 232.334H226.235L226.835 231.534L225.341 230.414L224.74 231.214L223.246 230.093L223.847 229.293L223.101 228.732L222.5 228.281L221.899 228.732L221.153 229.293L221.753 230.093L220.259 231.214L219.659 230.414L218.165 231.534L218.765 232.334L217.271 233.455L216.671 232.655L215.177 233.776L215.777 234.576L214.283 235.697L213.683 234.897L212.189 236.019L212.789 236.818L211.295 237.939L210.695 237.14L209.201 238.261L209.801 239.06L208.307 240.181L207.707 239.382L206.46 240.316L206.953 238.75L205.999 238.449L205.998 238.448L206.569 236.636L207.523 236.936L208.095 235.122L207.141 234.822L207.14 234.821L207.71 233.007L207.711 233.008L208.665 233.308L209.235 231.494L208.281 231.194L208.852 229.379L208.853 229.38L209.807 229.681L210.377 227.866L209.423 227.566L209.422 227.565L209.993 225.753L210.947 226.053L211.519 224.239L210.564 223.938L210.563 223.938L211.134 222.124L211.135 222.125L212.089 222.425L212.374 221.519L212.587 220.843L212.021 220.418L211.273 219.857L210.673 220.656L209.179 219.536H209.18L209.779 218.736L208.285 217.615L207.686 218.415L206.191 217.294L206.792 216.495L205.298 215.374L204.697 216.173L203.203 215.052L203.804 214.253L202.31 213.132L201.71 213.931L200.216 212.81L200.815 212.011L199.322 210.89L198.722 211.688L197.228 210.567L197.828 209.769L196.491 208.766H198.109V207.766H199.956V208.766H201.803V207.766H203.649V208.766H205.496V207.766H207.343V208.766H209.189V207.766H211.036V208.766H212.883V207.766H214.729V208.766H216.386L216.606 208.066L216.892 207.159L215.938 206.859L215.937 206.858L216.508 205.045L217.462 205.346L218.033 203.531L217.079 203.231L217.078 203.23L217.648 201.417L217.649 201.418L218.604 201.718L219.174 199.904L218.22 199.604L218.79 197.789L218.791 197.79L219.745 198.09L220.315 196.276L219.361 195.976L219.932 194.162L220.886 194.462L221.457 192.648L220.503 192.349L220.502 192.348L221.073 190.534L222.027 190.835L222.5 189.331L222.973 190.835L223.926 190.534L224.497 192.348V192.349L223.543 192.648L224.114 194.462L225.067 194.162L225.638 195.976H225.639L224.685 196.276L225.255 198.09L226.209 197.79V197.789L226.779 199.604L225.826 199.904L226.396 201.718L227.351 201.418V201.417L227.921 203.23V203.231L226.967 203.531L227.538 205.346L228.491 205.045L229.062 206.858V206.859L228.108 207.159L228.394 208.066L228.614 208.766H230.271V207.766H232.117V208.766H233.964V207.766H235.811V208.766H237.657V207.766H239.504V208.766H241.351V207.766H243.197V208.766H245.044V207.766H246.891V208.766H248.509L247.172 209.769L247.771 210.567L246.277 211.688L245.678 210.89L244.185 212.011L244.783 212.81L243.289 213.931L242.69 213.132L241.196 214.253L241.796 215.052L240.302 216.173L239.702 215.374L238.208 216.495L238.808 217.294L237.313 218.415L236.715 217.615L235.221 218.736L235.82 219.536L234.326 220.656L233.727 219.857L232.979 220.418L232.413 220.843L232.626 221.519L232.911 222.425L233.865 222.125V222.124L234.436 223.938V223.938L233.481 224.239L234.053 226.053L235.006 225.753L235.577 227.565V227.566L234.623 227.866L235.193 229.681L236.147 229.38V229.379L236.718 231.194H236.719L235.765 231.494L236.335 233.308L237.289 233.008V233.007L237.859 234.821V234.822L236.905 235.122L237.477 236.936L238.43 236.636ZM196.263 207.766V208.742L195.733 209.446L194.416 208.458V208.091L194.66 207.766H196.263ZM250.34 207.766L250.584 208.091V208.458L249.266 209.446L248.737 208.742V207.766H250.34ZM222.848 187.105L223.355 188.721L222.5 188.989L221.644 188.721L222.151 187.105L222.5 186.996L222.848 187.105Z" stroke="#7452F5" stroke-width="2" stroke-dasharray="2 2"/>
<path d="M263.818 135.558L264.685 135.834L264.683 135.836L265.277 136.64L263.896 137.662L263.504 137.537L263.282 137.238L263.817 135.557L263.818 135.558ZM350.717 137.238L350.495 137.537L350.103 137.662L348.722 136.64L349.317 135.836L349.314 135.833L350.182 135.558V135.557L350.717 137.238ZM348.979 131.782L349.58 133.669V133.67L348.628 133.974L349.19 135.741L347.743 134.67L347.147 135.472L345.572 134.306L346.169 133.503L344.595 132.336L343.999 133.139L342.424 131.973L343.02 131.169L341.445 130.002L340.851 130.806H340.85L339.274 129.639L339.871 128.836L338.297 127.669L337.701 128.472L336.127 127.305L336.723 126.502L335.147 125.335L334.552 126.139L332.978 124.971L333.573 124.169L331.999 123.002L331.403 123.805L329.829 122.638L330.425 121.835L328.851 120.668L328.254 121.472L326.68 120.305H326.681L327.275 119.502L325.701 118.335L325.105 119.138L323.531 117.971L324.127 117.168L322.553 116.001L321.956 116.805L320.382 115.638H320.383L320.978 114.834L319.403 113.668L318.809 114.471H318.808L317.233 113.304L317.829 112.501L316.255 111.334L315.659 112.137L314.084 110.971H314.085L314.681 110.167L313.105 109.001L312.511 109.804H312.51L310.936 108.638L311.531 107.834L309.957 106.667L309.361 107.47L307.786 106.304L308.383 105.5L307.596 104.917L307 104.476L306.404 104.917L305.617 105.5L306.213 106.304L304.638 107.47L304.043 106.667L302.469 107.834L303.063 108.638L301.489 109.804L300.895 109.001L299.319 110.167L299.915 110.971L298.34 112.137L297.745 111.334L296.171 112.501L296.766 113.304L295.191 114.471L294.597 113.668L293.022 114.834L293.617 115.638L292.043 116.805L291.447 116.001L289.873 117.168L290.468 117.971L288.894 119.138L288.299 118.335L286.725 119.502L287.319 120.305L285.745 121.472L285.149 120.668L283.575 121.835L284.17 122.638L282.596 123.805L282.001 123.002L280.427 124.169L281.021 124.971L279.447 126.139L278.853 125.335L277.277 126.502L277.872 127.305L276.298 128.472L275.703 127.669L274.129 128.836L274.725 129.639L273.149 130.806L272.555 130.002L270.98 131.169L271.575 131.973L270 133.139L269.405 132.336L267.831 133.503L268.427 134.306L266.852 135.472L266.257 134.67L264.808 135.742L265.372 133.974L264.42 133.67L264.419 133.669L265.021 131.782L265.974 132.086L266.575 130.198L265.622 129.895L266.223 128.006L266.224 128.007L267.177 128.311L267.778 126.422L266.825 126.119L266.824 126.118L267.426 124.229L267.427 124.23L268.379 124.534L268.98 122.646L268.027 122.343L268.629 120.455L269.582 120.759L270.184 118.871L269.23 118.567L269.831 116.679L269.832 116.68L270.785 116.982L271.386 115.095L270.434 114.791L270.433 114.79L271.034 112.902L271.035 112.903L271.987 113.207L272.589 111.319L271.636 111.016L272.237 109.128L273.19 109.432L273.792 107.544L272.839 107.24L272.838 107.239L273.439 105.352L273.44 105.353L274.393 105.655L274.994 103.768L274.042 103.464L274.041 103.463L274.643 101.576L275.596 101.88L276.197 99.9922L275.244 99.6885L275.846 97.8008L276.799 98.1045L277.4 96.2168L276.447 95.9131L276.446 95.9121L277.048 94.0244L277.049 94.0254L278.001 94.3281L278.603 92.4404L277.649 92.1367L278.251 90.249L279.204 90.5527L279.806 88.665L278.853 88.3613L279.453 86.4727L279.454 86.4736L280.407 86.7773L280.707 85.833L280.925 85.1523L280.35 84.7266L279.562 84.1426L278.968 84.9453L277.393 83.7783L277.988 82.9756L276.414 81.8096L275.818 82.6113L274.244 81.4453L274.84 80.6426L273.265 79.4756L272.67 80.2783L271.095 79.1123L271.69 78.3086L270.116 77.1426L269.521 77.9443L267.946 76.7783L268.542 75.9756L266.968 74.8086L266.372 75.6113L264.798 74.4443L265.393 73.6416L263.818 72.4756L263.223 73.2783L261.648 72.1104L262.244 71.3086L260.67 70.1416L260.074 70.9443L258.5 69.7773L259.096 68.9746L257.521 67.8076L256.925 68.6113L255.351 67.4434L255.946 66.6416L254.372 65.4746L253.776 66.2773L252.202 65.1104L252.798 64.3076L251.224 63.1406L250.627 63.9443L249.053 62.7773H249.054L249.648 61.9746L248.074 60.8076L247.479 61.6104L245.904 60.4434L246.5 59.6406L244.926 58.4736L244.33 59.2764L242.755 58.1104H242.756L243.351 57.3076L241.776 56.1406L241.182 56.9434L239.606 55.7764L240.202 54.9736L238.7 53.8604H240.536V52.8604H242.482V53.8604H244.428V52.8604H246.374V53.8604H248.32V52.8604H250.267V53.8604H252.213V52.8604H254.158V53.8604H256.104V52.8604H258.051V53.8604H259.997V52.8604H261.943V53.8604H263.889V52.8604H265.835V53.8604H267.781V52.8604H269.728V53.8604H271.674V52.8604H273.62V53.8604H275.565V52.8604H277.512V53.8604H279.458V52.8604H281.404V53.8604H283.351V52.8604H285.296V53.8604H287.242V52.8604H289.188V53.8604H290.893L291.114 53.1641L291.415 52.2197L290.462 51.916L291.062 50.0273L291.063 50.0283L292.017 50.332L292.618 48.4443L291.665 48.1406L291.664 48.1396L292.266 46.252L292.267 46.2529L293.219 46.5566L293.82 44.668L292.867 44.3652L293.469 42.4766L294.422 42.7803L295.023 40.8926L294.07 40.5889L294.069 40.5879L294.671 38.7002L294.672 38.7012L295.625 39.0049L296.226 37.1172L295.273 36.8135L295.272 36.8125L295.874 34.9248L295.875 34.9258L296.827 35.2295L297.429 33.3408L296.476 33.0381L297.077 31.1494L298.03 31.4531L298.632 29.5654L297.679 29.2617L297.678 29.2607L298.279 27.373L298.28 27.374L299.232 27.6777L299.834 25.79L298.882 25.4863L298.881 25.4854L299.482 23.5986L300.436 23.9014L301.037 22.0137L300.084 21.71L300.685 19.8213L300.686 19.8223L301.639 20.126L302.239 18.2383L301.287 17.9346L301.286 17.9336L301.888 16.0459L301.889 16.0469L302.841 16.3506L303.442 14.4629L302.489 14.1592L303.091 12.2715L304.044 12.5742L304.646 10.6865L303.692 10.3828L304.293 8.49414L304.294 8.49512L305.247 8.79883L305.848 6.91113L304.896 6.60742L304.895 6.60645L305.496 4.71973L306.449 5.02344L307 3.29492L307.551 5.02344L308.503 4.71973L309.104 6.60645V6.60742L308.152 6.91113L308.753 8.79883L309.706 8.49512V8.49414L310.307 10.3828H310.308L309.354 10.6865L309.956 12.5742L310.908 12.2715L311.51 14.1592H311.511L310.558 14.4629L311.159 16.3506L312.111 16.0469V16.0459L312.713 17.9336V17.9346L311.76 18.2383L312.361 20.126L313.314 19.8223V19.8213L313.915 21.71H313.916L312.963 22.0137L313.564 23.9014L314.517 23.5986L315.118 25.4854V25.4863L314.166 25.79L314.768 27.6777L315.72 27.374V27.373L316.321 29.2607V29.2617L315.368 29.5654L315.97 31.4531L316.922 31.1494L317.523 33.0381H317.524L316.571 33.3408L317.173 35.2295L318.125 34.9258V34.9248L318.727 36.8125V36.8135L317.774 37.1172L318.375 39.0049L319.328 38.7012V38.7002L319.93 40.5879V40.5889L318.977 40.8926L319.578 42.7803L320.53 42.4766L321.132 44.3652H321.133L320.18 44.668L320.781 46.5566L321.733 46.2529V46.252L322.335 48.1396V48.1406L321.382 48.4443L321.983 50.332L322.937 50.0283V50.0273L323.537 51.916H323.538L322.585 52.2197L322.886 53.1641L323.107 53.8604H324.812V52.8604H326.758V53.8604H328.704V52.8604H330.649V53.8604H332.596V52.8604H334.542V53.8604H336.488V52.8604H338.435V53.8604H340.38V52.8604H342.326V53.8604H344.272V52.8604H346.219V53.8604H348.165V52.8604H350.111V53.8604H352.057V52.8604H354.003V53.8604H355.949V52.8604H357.896V53.8604H359.842V52.8604H361.787V53.8604H363.733V52.8604H365.68V53.8604H367.626V52.8604H369.572V53.8604H371.518V52.8604H373.464V53.8604H375.3L373.798 54.9736L374.393 55.7764L372.817 56.9434L372.224 56.1406L370.648 57.3076L371.244 58.1104L369.669 59.2764L369.074 58.4736L367.5 59.6406L368.095 60.4434L366.521 61.6104L365.926 60.8076L364.352 61.9746L364.946 62.7773L363.372 63.9443L362.776 63.1406L361.202 64.3076L361.797 65.1104L360.223 66.2773L359.628 65.4746L358.054 66.6416L358.648 67.4434L357.074 68.6113L356.479 67.8076L354.904 68.9746L355.499 69.7773L353.925 70.9443L353.33 70.1416L351.756 71.3086L352.351 72.1104L350.776 73.2783L350.182 72.4756L348.607 73.6416L349.201 74.4443L347.627 75.6113L347.032 74.8086L345.458 75.9756L346.053 76.7783L344.479 77.9443L343.884 77.1426L342.31 78.3086L342.904 79.1123L341.329 80.2783L340.734 79.4756L339.16 80.6426L339.755 81.4453L338.181 82.6113L337.586 81.8096L336.012 82.9756L336.606 83.7783L335.031 84.9453L334.438 84.1426L333.65 84.7266L333.075 85.1523L333.293 85.833L333.593 86.7773L334.546 86.4736V86.4727L335.146 88.3613H335.147L334.194 88.665L334.796 90.5527L335.748 90.249L336.35 92.1367L335.397 92.4404L335.999 94.3281L336.951 94.0254V94.0244L337.553 95.9121V95.9131L336.6 96.2168L337.201 98.1045L338.153 97.8008L338.755 99.6885H338.756L337.803 99.9922L338.404 101.88L339.356 101.576L339.958 103.463V103.464L339.006 103.768L339.607 105.655L340.56 105.353V105.352L341.161 107.239V107.24L340.208 107.544L340.81 109.432L341.762 109.128L342.363 111.016H342.364L341.411 111.319L342.013 113.207L342.965 112.903V112.902L343.566 114.79V114.791L342.614 115.095L343.215 116.982L344.168 116.68V116.679L344.769 118.567H344.77L343.816 118.871L344.418 120.759L345.37 120.455L345.972 122.343H345.973L345.02 122.646L345.621 124.534L346.573 124.23V124.229L347.175 126.118V126.119L346.222 126.422L346.823 128.311L347.776 128.007V128.006L348.377 129.895H348.378L347.425 130.198L348.026 132.086L348.979 131.782ZM238.59 52.8604V53.8574L238.032 54.6094L236.644 53.5811V53.1924L236.891 52.8604H238.59ZM377.109 52.8604L377.356 53.1924V53.5811L375.967 54.6094L375.41 53.8574V52.8604H377.109ZM307.368 1.15625L307.901 2.83203H307.902L307 3.11914L306.098 2.83203L306.631 1.15625L307 1.03906L307.368 1.15625Z" stroke="#7452F5" stroke-width="2" stroke-dasharray="2 2"/>
</svg>
